<svg xmlns="http://www.w3.org/2000/svg" width="40" height="40"><path d="M39.26 14.616v-.011a.17.17 0 0 0-.01-.014 19.606 19.606 0 0 0-1.78-4.295.672.672 0 0 0 .46.185.69.69 0 0 0 .69-.689v-.674a.69.69 0 0 0-1.38 0v.674c0 .041.02.076.02.116-.1-.178-.21-.354-.31-.529-.02-.026-.05-.042-.07-.065a19.415 19.415 0 0 0-1.4-1.938.3.3 0 0 0-.04-.086q-.21-.249-.42-.493a.216.216 0 0 0-.05-.033 20.357 20.357 0 0 0-1.74-1.748c-.02-.012-.02-.029-.04-.041a12.47 12.47 0 0 0-.49-.416.334.334 0 0 0-.08-.044 19.749 19.749 0 0 0-1.94-1.4.333.333 0 0 0-.07-.063 12.4 12.4 0 0 0-.53-.32.765.765 0 0 0 .14.026h.67a.69.69 0 1 0 0-1.379h-.67a.683.683 0 0 0-.69.689.668.668 0 0 0 .19.471A20 20 0 0 0 25.41.747a.146.146 0 0 1-.02 0 19.922 19.922 0 0 0-10.78 0h-.02a19.765 19.765 0 0 0-4.29 1.785.689.689 0 0 0-.51-1.153h-.67a.69.69 0 1 0 0 1.379h.67a.846.846 0 0 0 .12-.023c-.18.1-.35.21-.53.319a.257.257 0 0 0-.06.064 18.616 18.616 0 0 0-1.94 1.4.745.745 0 0 0-.09.044c-.16.138-.33.275-.49.419l-.03.04a20.508 20.508 0 0 0-1.75 1.751c-.01.013-.03.018-.04.031q-.21.243-.42.491c-.02.027-.03.057-.05.086a19.193 19.193 0 0 0-1.39 1.937c-.02.026-.05.04-.07.068-.11.173-.21.349-.32.527a.543.543 0 0 0 .03-.128V9.11a.69.69 0 0 0-1.38 0v.674a.69.69 0 0 0 .69.689.679.679 0 0 0 .47-.191 20.228 20.228 0 0 0-1.79 4.309.17.17 0 0 1-.01.014v.012a19.942 19.942 0 0 0 0 10.764v.01c0 .008.01.012.01.019a20.1 20.1 0 0 0 1.78 4.291.664.664 0 0 0-.46-.186.69.69 0 0 0-.69.69v.674a.69.69 0 0 0 1.38 0V30.2a.464.464 0 0 0-.03-.115c.11.177.21.352.32.526a.584.584 0 0 0 .1.111 18.672 18.672 0 0 0 1.37 1.894.281.281 0 0 0 .04.086q.21.249.42.491a.347.347 0 0 0 .04.03 20.387 20.387 0 0 0 1.75 1.753c.02.012.02.028.04.04.16.142.32.281.49.416a.429.429 0 0 0 .09.054 20.033 20.033 0 0 0 1.93 1.392.333.333 0 0 0 .07.063c.17.109.35.215.52.319a.6.6 0 0 0-.13-.025h-.67a.69.69 0 1 0 0 1.379h.67a.683.683 0 0 0 .69-.69.667.667 0 0 0-.19-.47 19.846 19.846 0 0 0 4.31 1.792h.03a19.875 19.875 0 0 0 10.76 0h.03a19.862 19.862 0 0 0 4.29-1.784.688.688 0 0 0 .51 1.152h.67a.69.69 0 1 0 0-1.379h-.67a.64.64 0 0 0-.12.023c.18-.1.35-.21.53-.32.02-.016.04-.043.06-.063a19.52 19.52 0 0 0 1.93-1.391c.03-.019.07-.03.1-.053.16-.138.33-.276.49-.419.01-.012.02-.03.03-.042a19.173 19.173 0 0 0 1.75-1.753c.01-.011.03-.016.04-.028q.21-.241.42-.491a.312.312 0 0 0 .04-.085 18.785 18.785 0 0 0 1.37-1.894.59.59 0 0 0 .1-.112c.11-.174.21-.351.32-.528a.6.6 0 0 0-.03.13v.674a.69.69 0 1 0 1.38 0v-.674a.69.69 0 0 0-.69-.69.676.676 0 0 0-.47.192 20.2 20.2 0 0 0 1.79-4.306c0-.007.01-.011.01-.017v-.008a19.942 19.942 0 0 0 0-10.764zM20 1.378a18.553 18.553 0 0 1 4.39.528l-1.91 7.662a10.334 10.334 0 0 0-4.96 0l-1.91-7.663A18.6 18.6 0 0 1 20 1.378zM1.38 20a18.19 18.19 0 0 1 .53-4.392l7.66 1.915a10.376 10.376 0 0 0 0 4.954l-7.66 1.915A18.19 18.19 0 0 1 1.38 20zM20 38.62a18.553 18.553 0 0 1-4.39-.528l1.91-7.661a10.434 10.434 0 0 0 4.96 0l1.91 7.661a18.553 18.553 0 0 1-4.39.526zm0-9.268A9.352 9.352 0 1 1 29.35 20 9.359 9.359 0 0 1 20 29.35zm18.09-4.96l-7.66-1.915a10.376 10.376 0 0 0 0-4.954l7.66-1.915a18.463 18.463 0 0 1 0 8.782zM2.73 3.892a.7.7 0 0 0 .54-.257 2.148 2.148 0 0 1 .37-.368.7.7 0 0 0 .11-.968.691.691 0 0 0-.97-.111 3.731 3.731 0 0 0-.59.582.687.687 0 0 0 .11.97.673.673 0 0 0 .43.147zm3.02-1.13h.67a.69.69 0 1 0 0-1.379h-.67a.69.69 0 1 0 0 1.374zM2.07 7.109a.691.691 0 0 0 .69-.69V5.74a.69.69 0 0 0-1.38 0v.674a.691.691 0 0 0 .69.686zm31.51-4.347h.68a.69.69 0 1 0 0-1.379h-.68a.69.69 0 1 0 0 1.374zm3.16.876a.67.67 0 0 0 .54.26.689.689 0 0 0 .54-1.119 3.931 3.931 0 0 0-.59-.585.689.689 0 1 0-.86 1.076 2.858 2.858 0 0 1 .37.363zm.5 2.115v.676a.69.69 0 0 0 1.38 0v-.676a.69.69 0 0 0-1.38-.005zm.69 27.144a.69.69 0 0 0-.69.688v.676a.69.69 0 1 0 1.38 0v-.681a.691.691 0 0 0-.69-.688zm-3.68 4.347h-.68a.69.69 0 0 0 0 1.379h.68a.692.692 0 1 0 0-1.384zm2.48-.873a2.19 2.19 0 0 1-.37.369.691.691 0 0 0-.1.967.668.668 0 0 0 .54.261.654.654 0 0 0 .42-.149 3.433 3.433 0 0 0 .59-.584.685.685 0 0 0-.11-.969.694.694 0 0 0-.97.1zm-30.31.873h-.68a.69.69 0 1 0 0 1.379h.68a.692.692 0 1 0 0-1.384zm-3.66-2.993v-.674a.69.69 0 0 0-1.38 0v.674a.69.69 0 1 0 1.38-.005zm.5 2.117a.69.69 0 0 0-.97-.11.7.7 0 0 0-.11.969 3.924 3.924 0 0 0 .59.584.674.674 0 0 0 .43.153.688.688 0 0 0 .43-1.227 2.348 2.348 0 0 1-.37-.374z" fill="#ffd940" fill-rule="evenodd"/></svg>