<svg xmlns="http://www.w3.org/2000/svg" width="43" height="40"><path d="M1.78 24.487v.021h7.16a3.463 3.463 0 0 1 6.91 0h10.69a3.463 3.463 0 0 1 6.91 0h7.77v-.021a5.41 5.41 0 0 0 1.77-4.026v-7.73a5.348 5.348 0 0 0-5.29-5.4h-5.94C31.03 3.198 26.71.011 21.5.011s-9.53 3.187-10.26 7.321H5.3a5.343 5.343 0 0 0-5.29 5.4v7.731a5.4 5.4 0 0 0 1.77 4.024zM21.5 4.921c2.31 0 4.39 1.036 5.21 2.412H16.29c.81-1.378 2.9-2.412 5.21-2.412zm19.72 21.551V34.6a5.348 5.348 0 0 1-5.29 5.4H7.07a5.341 5.341 0 0 1-5.29-5.4v-8.128h7.16a3.463 3.463 0 0 0 6.91 0h10.69a3.463 3.463 0 0 0 6.91 0h7.77z" fill="#ffd940" fill-rule="evenodd"/></svg>