<svg xmlns="http://www.w3.org/2000/svg" width="96" height="96"><circle data-name="4" cx="48" cy="48" r="48" fill="#ffd940"/><path d="M88.36 12h-33.8a1.64 1.64 0 1 0 0 3.28h32.16v4.59H9.28v-4.59h32.16a1.64 1.64 0 1 0 0-3.28H7.64A1.635 1.635 0 0 0 6 13.64v7.87a1.635 1.635 0 0 0 1.64 1.64h1.97v48.57a4.929 4.929 0 0 0 4.92 4.92h13.6l-7.85 17.03A1.646 1.646 0 0 0 21.77 96h7.91a1.634 1.634 0 0 0 1.49-.96l8.48-18.4h3.43v17.72A1.641 1.641 0 0 0 44.72 96h6.56a1.641 1.641 0 0 0 1.64-1.64V76.64h3.43l8.48 18.4a1.634 1.634 0 0 0 1.49.96h7.9a1.671 1.671 0 0 0 1.39-.76 1.625 1.625 0 0 0 .1-1.57l-7.84-17.03h13.6a4.929 4.929 0 0 0 4.92-4.92V23.15h1.97A1.641 1.641 0 0 0 90 21.51v-7.87A1.641 1.641 0 0 0 88.36 12zM28.63 92.72h-4.29l7.4-16.08h4.3zm21.01 0h-3.28V76.64h3.28v16.08zm22.02 0h-4.29l-7.41-16.08h4.3zm11.45-21a1.647 1.647 0 0 1-1.64 1.64H14.53a1.647 1.647 0 0 1-1.64-1.64V23.15h70.22v48.57zM48 15.28a1.639 1.639 0 0 0 1.64-1.64 1.668 1.668 0 0 0-.48-1.16A1.643 1.643 0 0 0 48 12a1.639 1.639 0 0 0-1.64 1.64 1.643 1.643 0 0 0 .48 1.16 1.668 1.668 0 0 0 1.16.48zM23.33 46.46l.29-.29v6.21h-1.1a1.64 1.64 0 0 0 0 3.28H28a1.64 1.64 0 0 0 0-3.28h-1.1V42.21a1.637 1.637 0 0 0-2.8-1.16l-3.09 3.09a1.64 1.64 0 1 0 2.32 2.32zm22.74 0l.29-.29v6.21h-1.1a1.64 1.64 0 0 0 0 3.28h5.48a1.64 1.64 0 1 0 0-3.28h-1.1V42.21a1.637 1.637 0 0 0-2.8-1.16l-3.09 3.09a1.64 1.64 0 1 0 2.32 2.32zM33.56 49.9h.71v.71a1.64 1.64 0 1 0 3.28 0v-.71h.72a1.64 1.64 0 0 0 0-3.28h-.72v-.72a1.64 1.64 0 0 0-3.28 0v.72h-.71a1.64 1.64 0 0 0 0 3.28zm24.64-.82h4.7a1.645 1.645 0 0 0 0-3.29h-4.7a1.645 1.645 0 0 0 0 3.29zm0 6.56h4.7a1.64 1.64 0 1 0 0-3.28h-4.7a1.64 1.64 0 0 0 0 3.28zm11.32-9.59a1.635 1.635 0 0 0 1.64-1.64 1.342 1.342 0 0 1 .44-.99 1.327 1.327 0 1 1 1.53 2.15 4.4 4.4 0 0 0-2.28 3.82v.12a1.64 1.64 0 1 0 3.28 0v-.12a1.1 1.1 0 0 1 .6-.96 4.608 4.608 0 0 0-1.73-8.6 4.67 4.67 0 0 0-3.59 1.15 4.614 4.614 0 0 0-1.53 3.43 1.641 1.641 0 0 0 1.64 1.64zm2.97 6.31a1.609 1.609 0 0 0-1.16.48 1.626 1.626 0 0 0-.48 1.16 1.639 1.639 0 0 0 1.64 1.64A1.639 1.639 0 0 0 74.13 54a1.668 1.668 0 0 0-.48-1.16 1.643 1.643 0 0 0-1.16-.48z" fill-rule="evenodd"/></svg>