<svg xmlns="http://www.w3.org/2000/svg" width="96" height="97"><circle data-name="2" cx="48" cy="49" r="48" fill="#ffd940"/><path d="M43.59 27.69h-.01a1.405 1.405 0 1 0 .01 0zm9.83 0h-.01a1.415 1.415 0 1 0 .01 0zm33.74 19.9a4 4 0 0 0-.4-1.3 4.146 4.146 0 0 0-5.41-1.86l-3.1 1.42-.01.01a3.594 3.594 0 0 0-2.08 3.25v3.86c0 .14.01.28.02.41a.578.578 0 0 0-.06.17 3.254 3.254 0 0 1-1.43 1.9 3.038 3.038 0 0 1-3.38.05c-5.62-3.47-9.36-13.51-9.76-14.64a.106.106 0 0 1-.02-.05 4.11 4.11 0 0 0-4.03-3.34h-.48a12.785 12.785 0 0 0 3.83-11.82 3.487 3.487 0 0 0 1.17-.96 3.721 3.721 0 0 0 .76-3.13c-1.09-5.21-4.38-9.22-8.54-10.83a6.893 6.893 0 1 0-11.54-.1c-4.29 1.55-7.68 5.61-8.79 10.93a3.75 3.75 0 0 0 .75 3.13 3.622 3.622 0 0 0 1.18.96A12.789 12.789 0 0 0 39.7 37.5c-.32.04-1.13.23-1.23.25a4.267 4.267 0 0 0-3.23 2.83c-.04.11-3.82 11.18-9.86 14.92a3.038 3.038 0 0 1-3.38-.05 3.254 3.254 0 0 1-1.43-1.9c-.02-.06-.04-.11-.06-.17.01-.13.02-.27.02-.41v-3.86a3.594 3.594 0 0 0-2.08-3.25l-3.11-1.43a4.143 4.143 0 0 0-5.41 1.86 4 4 0 0 0-.4 1.3 5.271 5.271 0 0 0 1.01 10.44h2.73a11.91 11.91 0 0 0 4.15 4.57 11.534 11.534 0 0 0 4.89 1.78 11.124 11.124 0 0 0 1.41.09 11.662 11.662 0 0 0 6.11-1.74 24.375 24.375 0 0 0 6.28-5.89v3.52a1.4 1.4 0 1 0 2.8 0v-5.79h19.88v16.79l-10.45 2.88-9.43-2.6v-4.87a1.4 1.4 0 1 0-2.8 0v4.1L21.5 66.85a5.34 5.34 0 0 0-2.82 10.3l7.7 2.12-1.63 3.18a1.402 1.402 0 0 0 2.49 1.29l3.39-6.61a1.145 1.145 0 0 1 1.53-.49l4.25 2.19a.266.266 0 0 1 .14.17.284.284 0 0 1-.01.22l-5.63 10.95a5.554 5.554 0 0 1-7.48 2.4l-.32-.17a.3.3 0 0 1-.14-.16.346.346 0 0 1 .02-.22l1.32-2.58a1.402 1.402 0 0 0-2.49-1.29l-1.32 2.58a3.081 3.081 0 0 0-.2 2.36 3.022 3.022 0 0 0 1.53 1.81l.32.17a8.344 8.344 0 0 0 11.26-3.62l1.21-2.36 13.72-3.78 13.73 3.78 1.21 2.36a8.344 8.344 0 0 0 11.26 3.62l.32-.17a3.092 3.092 0 0 0 1.33-4.17l-5.88-11.46 7.7-2.12a5.341 5.341 0 0 0-2.83-10.3l-3.81 1.05a1.405 1.405 0 1 0 .74 2.71l3.82-1.05a2.529 2.529 0 0 1 1.33 4.88L36.37 85.69l2.66-5.18a3.452 3.452 0 0 0 .3-.87l26.61-7.33a1.4 1.4 0 0 0 .98-1.73 1.388 1.388 0 0 0-1.72-.98l-3.6.99V58.08a23.075 23.075 0 0 0 5.26 4.65 11.662 11.662 0 0 0 6.11 1.74 11.124 11.124 0 0 0 1.41-.09 11.669 11.669 0 0 0 4.89-1.78 11.989 11.989 0 0 0 4.15-4.57h2.72a5.271 5.271 0 0 0 1.02-10.44zm-71.61 7.63h-5.01a2.455 2.455 0 0 1 0-4.91h.48a1.4 1.4 0 0 0 1.34-1.82 1.3 1.3 0 0 1 .08-.95 1.32 1.32 0 0 1 1.73-.55l3.09 1.41.01.01a.766.766 0 0 1 .45.7v3.86a2.232 2.232 0 0 1-2.04 2.25h-.13zM36.1 51.9a.138.138 0 0 0-.03.04 25.028 25.028 0 0 1-7.72 8.39 8.611 8.611 0 0 1-5.69 1.26 8.783 8.783 0 0 1-3.72-1.36 9 9 0 0 1-2.43-2.29 4.867 4.867 0 0 0 2.55-1.37 6.311 6.311 0 0 0 1.42 1.25 5.967 5.967 0 0 0 3.26.98 5.9 5.9 0 0 0 3.11-.9c2.92-1.8 5.66-5.11 8.15-9.83.41-.77.78-1.52 1.1-2.22v6.05zm31.44 28.13l6.16 11.99a.346.346 0 0 1 .02.22.283.283 0 0 1-.15.16l-.32.17a5.56 5.56 0 0 1-7.48-2.4l-4.34-8.46zm-8.87 2.44l1.65 3.22-6.68-1.83zm-20.16-5.52a2.91 2.91 0 0 0-.81-.62l-4.25-2.19a3.937 3.937 0 0 0-5.31 1.71l-.45.86-8.27-2.27a2.53 2.53 0 0 1 1.34-4.88l22.29 6.14zM48.5 2.81A4.1 4.1 0 0 1 51.17 10c-.35-.03-.69-.05-1.04-.05h-.38V7.13a1.405 1.405 0 1 0-2.81 0v2.82h-.38c-.25 0-.51.01-.76.03l-.02-.02a4.094 4.094 0 0 1 2.72-7.15zM36.84 22.92a.945.945 0 0 1-.19-.79c1.16-5.51 5.23-9.36 9.91-9.36h3.57c4.67 0 8.75 3.85 9.9 9.36a.949.949 0 0 1-.18.79.9.9 0 0 1-.71.34h-5.28v-2.4a1.4 1.4 0 1 0-2.8 0v2.4h-1.31v-.64a1.405 1.405 0 1 0-2.81 0v.64h-9.39a.885.885 0 0 1-.71-.34zm1.56 5.2a10.044 10.044 0 0 1 .21-2.05h19.46a9.944 9.944 0 1 1-19.67 2.05zm20.39 23.64H38.91v-2.55h19.88v2.55zm0-5.36H38.91v-4.82a1.3 1.3 0 0 1 1.3-1.3h4.23a12.608 12.608 0 0 0 7.81 0h5.25a1.3 1.3 0 0 1 1.29 1.3v4.82zm18.96 13.83a8.783 8.783 0 0 1-3.72 1.36 8.638 8.638 0 0 1-5.7-1.26 23.354 23.354 0 0 1-6.73-6.87v-5.57c1.89 3.61 4.68 7.81 8.24 10.01a5.852 5.852 0 0 0 6.36-.08 6.363 6.363 0 0 0 1.43-1.25 4.867 4.867 0 0 0 2.55 1.37 9.142 9.142 0 0 1-2.43 2.29zm8.39-5.01h-5.13a2.232 2.232 0 0 1-2.04-2.25v-3.86a.766.766 0 0 1 .45-.7l3.1-1.42a1.3 1.3 0 0 1 .58-.13 1.278 1.278 0 0 1 1.15.68 1.253 1.253 0 0 1 .07.95 1.414 1.414 0 0 0 1.35 1.82h.47a2.455 2.455 0 0 1 0 4.91zm5.46-25.53h-.94v-.94a1.405 1.405 0 1 0-2.81 0v.94h-.94a1.405 1.405 0 0 0 0 2.81h.94v.94a1.405 1.405 0 1 0 2.81 0v-.94h.94a1.405 1.405 0 0 0 0-2.81zm-81.51 0h-.94v-.94a1.405 1.405 0 1 0-2.81 0v.94H5.4a1.405 1.405 0 0 0 0 2.81h.94v.94a1.405 1.405 0 1 0 2.81 0v-.94h.94a1.405 1.405 0 0 0 0-2.81zm13.18-.53h-4.09a1.41 1.41 0 0 0 0 2.82h4.09a1.41 1.41 0 0 0 0-2.82zm54.24 0h-4.09a1.41 1.41 0 0 0 0 2.82h4.09a1.41 1.41 0 0 0 0-2.82zM27.84 42.43a1.391 1.391 0 0 0-1.91-.51l-3.55 2.05a1.412 1.412 0 0 0 .7 2.63 1.541 1.541 0 0 0 .71-.19l3.54-2.05a1.415 1.415 0 0 0 .51-1.93zm46.98-27.18a1.417 1.417 0 0 0-1.92-.52l-3.54 2.06a1.4 1.4 0 0 0 .7 2.62 1.366 1.366 0 0 0 .7-.19l3.55-2.05a1.405 1.405 0 0 0 .51-1.92zm-.51 28.72l-3.55-2.05a1.391 1.391 0 0 0-1.91.51 1.415 1.415 0 0 0 .51 1.93l3.54 2.05a1.5 1.5 0 0 0 .7.19 1.412 1.412 0 0 0 .71-2.63zM27.33 16.79l-3.54-2.06a1.41 1.41 0 0 0-1.41 2.44l3.55 2.05a1.366 1.366 0 0 0 .7.19 1.4 1.4 0 0 0 .7-2.62zm9.69-8.69l-2.04-3.55a1.407 1.407 0 1 0-2.44 1.4l2.05 3.56a1.4 1.4 0 0 0 1.22.7 1.366 1.366 0 0 0 .7-.19 1.405 1.405 0 0 0 .51-1.92zm26.61-4.07a1.409 1.409 0 0 0-1.92.52L59.67 8.1a1.405 1.405 0 0 0 .51 1.92 1.366 1.366 0 0 0 .7.19 1.4 1.4 0 0 0 1.22-.7l2.04-3.56a1.405 1.405 0 0 0-.51-1.92z" fill-rule="evenodd"/></svg>