<svg xmlns="http://www.w3.org/2000/svg" width="50" height="40"><path d="M49 8.643c-1.59-.517-3.32-.953-4.96-1.336V30a4.344 4.344 0 0 1-4.39 4.286c-3.89 0-5.76.861-8.93 2.87a57.455 57.455 0 0 1 17.35 2.769 1.489 1.489 0 0 0 1.32-.2 1.427 1.427 0 0 0 .61-1.158V10a1.427 1.427 0 0 0-1-1.357zM10.35 34.284a4.344 4.344 0 0 1-4.39-4.286V7.333c-1.64.382-3.37.792-4.96 1.31a1.427 1.427 0 0 0-1 1.355V38.57a1.427 1.427 0 0 0 .61 1.158c1.75 1.225 5.15-2.494 18.66-2.574-3.19-2.021-5.07-2.87-8.92-2.87zm21.97-33.03v8.152l.43-.417a1.487 1.487 0 0 1 2.07 0l.43.417v-9a17.215 17.215 0 0 0-2.93.848zM10.35 0a1.441 1.441 0 0 0-1.46 1.428V30a1.442 1.442 0 0 0 1.46 1.428c5.46 0 7.82 1.562 12.36 4.516l.82.535v-32C19 1.556 16.05 0 10.35 0zm29.3 0c-.52 0-.99.03-1.47.055v12.8a1.419 1.419 0 0 1-.9 1.319 1.5 1.5 0 0 1-1.6-.31l-1.89-1.846-1.9 1.847a1.483 1.483 0 0 1-1.59.311 1.433 1.433 0 0 1-.91-1.321V2.685c-.92.521-1.89 1.125-2.93 1.793v32l.83-.535c4.54-2.954 6.9-4.516 12.36-4.516a1.442 1.442 0 0 0 1.46-1.428V1.426A1.441 1.441 0 0 0 39.65 0z" fill="#ffd940" fill-rule="evenodd"/></svg>