<svg xmlns="http://www.w3.org/2000/svg" width="96" height="96"><circle data-name="3" cx="48" cy="48" r="48" fill="#ffd940"/><path d="M83.6 33.91L54.76 5.2a4.177 4.177 0 0 0-5.89 0l-10.01 9.96a1.386 1.386 0 0 0 1.96 1.96l10.01-9.97a1.388 1.388 0 0 1 1.96 0l28.84 28.71a1.37 1.37 0 0 1 0 1.96L45.12 74.16a1.4 1.4 0 0 1-1.96.01L14.32 45.45a1.376 1.376 0 0 1 0-1.95l18.22-18.14a1.386 1.386 0 0 0-1.96-1.96L12.36 41.55a4.122 4.122 0 0 0 0 5.86L41.2 76.12a4.183 4.183 0 0 0 5.88 0L83.6 39.77a4.14 4.14 0 0 0 0-5.86zm-46.77-13.4a1.4 1.4 0 0 0-1.39-1.38 1.448 1.448 0 0 0-.98.41 1.376 1.376 0 0 0-.4.98 1.353 1.353 0 0 0 .4.97 1.385 1.385 0 0 0 2.37-.98zM12.76 52.3a1.4 1.4 0 0 0-1.39-1.38 1.4 1.4 0 0 0-.98.41 1.353 1.353 0 0 0-.4.97 1.336 1.336 0 0 0 .4.98 1.352 1.352 0 0 0 .98.4 1.383 1.383 0 0 0 1.39-1.38zm72.8-8.61a1.388 1.388 0 0 0-1.96 0l-38.48 38.3a1.388 1.388 0 0 1-1.96 0L16.28 55.23a1.388 1.388 0 0 0-1.96 0 1.37 1.37 0 0 0 0 1.96l26.87 26.76a4.186 4.186 0 0 0 5.89-.01l38.48-38.3a1.376 1.376 0 0 0 0-1.95zm.01 7.81a1.407 1.407 0 0 0-1.96 0L45.13 89.81a1.388 1.388 0 0 1-1.96 0l-30.8-30.67a1.39 1.39 0 0 0-1.97 1.96l30.8 30.66a4.177 4.177 0 0 0 5.89 0l38.48-38.3a1.388 1.388 0 0 0 0-1.96zM60.44 25.32l-9.41-9.38a1.4 1.4 0 0 0-1.97 0l-9.42 9.38a1.388 1.388 0 0 0 0 1.96l9.42 9.37a1.388 1.388 0 0 0 1.96 0l9.42-9.38a1.376 1.376 0 0 0 0-1.95zm-10.4 8.4l-7.46-7.42 7.46-7.43 7.46 7.43zm-8.6 4.23a1.376 1.376 0 0 0-1.38-1.38h-5.22v-2.42a1.385 1.385 0 0 0-2.77 0l-.01 3.8a1.383 1.383 0 0 0 1.39 1.38h6.61a1.383 1.383 0 0 0 1.38-1.38zm14.74 17.33l-11.44-11.4a1.39 1.39 0 0 0-1.97 1.96l11.45 11.39a1.382 1.382 0 1 0 1.96-1.95zM72.8 37.62l-6.86-6.83a1.4 1.4 0 0 0-1.97 0 1.376 1.376 0 0 0 0 1.95l6.87 6.84a1.386 1.386 0 0 0 1.96-1.96zm-4.71 4.69l-6.87-6.83a1.382 1.382 0 1 0-1.96 1.95l6.87 6.84a1.386 1.386 0 0 0 1.96-1.96zM63.38 47l-6.87-6.83a1.382 1.382 0 0 0-1.96 1.95l6.87 6.84A1.386 1.386 0 0 0 63.38 47zm-29.43-1.59a1.385 1.385 0 0 0-1.39-1.38h-5.22l.01-2.42a1.39 1.39 0 0 0-2.78 0v3.8a1.376 1.376 0 0 0 .4.98 1.417 1.417 0 0 0 .99.4h6.6a1.385 1.385 0 0 0 1.39-1.38zM48.72 62.7L37.28 51.31a1.388 1.388 0 0 0-1.96 0 1.359 1.359 0 0 0 0 1.95l11.44 11.4a1.386 1.386 0 0 0 1.96-1.96z" fill-rule="evenodd"/></svg>