<svg xmlns="http://www.w3.org/2000/svg" width="96" height="96"><circle data-name="1" cx="48" cy="48" r="48" fill="#ffd940"/><path d="M48.5 33.45a1.5 1.5 0 0 0-1.05-1.84l-12.5-3.35a1.5 1.5 0 0 0-.79 2.89l12.5 3.35a1.486 1.486 0 0 0 1.84-1.05zm22.06.11a1.518 1.518 0 0 0 1.9.97l12.52-3.35a.983.983 0 0 0 .16-.05 1.49 1.49 0 0 0 .96-1.89 1.518 1.518 0 0 0-1.9-.97l-12.52 3.35c-.05.01-.11.03-.16.04a1.5 1.5 0 0 0-.96 1.9zm18.08-5.02a1.517 1.517 0 0 0 1.79 1.17l4.45-1.18a1.508 1.508 0 0 0-.78-2.91l-4.45 1.19a1.5 1.5 0 0 0-1.01 1.73zm-7.86-13.33a1.509 1.509 0 0 0 2.12 0l3.27-3.27a1.5 1.5 0 0 0-2.11-2.12l-3.28 3.28a1.5 1.5 0 0 0 0 2.11zM67.65 28.34a1.5 1.5 0 0 0 2.11 0l9.16-9.16a1.492 1.492 0 1 0-2.11-2.11l-9.16 9.15a1.491 1.491 0 0 0 0 2.12zM64.78 11l-3.34 12.49a1.5 1.5 0 0 0 2.89.79l3.35-12.49a1.503 1.503 0 0 0-2.9-.79zM51.82 65.38a1.5 1.5 0 0 0-1.84 1.06l-1.18 4.45a1.502 1.502 0 1 0 2.9.78l1.18-4.45a1.509 1.509 0 0 0-1.06-1.84zm28.98-7.74a1.5 1.5 0 0 0 0 2.11l3.31 3.3a1.479 1.479 0 0 0 2.11 0 1.5 1.5 0 0 0 0-2.11l-3.3-3.3a1.509 1.509 0 0 0-2.12 0zM70.63 39.38a1.5 1.5 0 0 0 1.06 1.84l12.51 3.35a1.5 1.5 0 1 0 .78-2.89l-12.51-3.36a1.5 1.5 0 0 0-1.84 1.06zM64.9 62a1.505 1.505 0 1 0 2.86-.94l-3.39-12.53a1.5 1.5 0 0 0-2.89.78l3.37 12.53a1.424 1.424 0 0 0 .05.16zM28.74 43.1l-4.45 1.18a1.507 1.507 0 1 0 .75 2.92l4.48-1.2a1.502 1.502 0 0 0-.78-2.9zm60.91 2.95l4.46 1.18a1.5 1.5 0 1 0 .78-2.89l-4.46-1.19a1.502 1.502 0 1 0-.78 2.9zM66.34 67.28l1.18 4.46a1.502 1.502 0 0 0 2.9-.78l-1.18-4.46a1.502 1.502 0 0 0-2.9.78zM78.96 55.8a1.491 1.491 0 0 0 0-2.12l-9.17-9.16a1.5 1.5 0 0 0-2.11 0 1.479 1.479 0 0 0 0 2.11l9.17 9.17a1.5 1.5 0 0 0 2.11 0zM51.48 44.23a1.5 1.5 0 0 0-2.11.25l-2.25 2.25a1.143 1.143 0 0 0-.25.24 1.506 1.506 0 1 0 2.36 1.87l2.26-2.25a1.363 1.363 0 0 0 .24-.24 1.5 1.5 0 0 0-.25-2.12zm-2.91-4.96a1.5 1.5 0 0 0-1.9-.96l-12.5 3.34a1.502 1.502 0 0 0 .78 2.9l12.49-3.34a1.046 1.046 0 0 0 .17-.04 1.5 1.5 0 0 0 .96-1.9zm-5.72 13.6a1.509 1.509 0 0 0-2.12.24l-4.23 4.22a1.878 1.878 0 0 0-.24.25 1.506 1.506 0 0 0 2.36 1.87l4.23-4.23a1.363 1.363 0 0 0 .24-.24 1.5 1.5 0 0 0-.24-2.11zm-21.06 23.4a1.506 1.506 0 0 0-2.36-1.87l-4.23 4.23a1.421 1.421 0 0 0-.25.24 1.506 1.506 0 1 0 2.36 1.87l4.23-4.22a1.968 1.968 0 0 0 .25-.25zm4.08-6.43a1.5 1.5 0 0 0 2.11.24l4.23-4.22a1.509 1.509 0 0 0-2.12-2.12l-4.23 4.23a1.5 1.5 0 0 0 .01 1.87zM59.6 44.01l2.51-2.66 3.62-.47a1.5 1.5 0 0 0 1.13-2.21l-1.77-3.18.66-3.55.03.05a1.369 1.369 0 0 0 0-.57 1.5 1.5 0 0 0-1.76-1.19l-3.57.65-3.15-1.73a1.615 1.615 0 0 0-.57-.2 1.507 1.507 0 0 0-1.69 1.3l-.46 3.62-2.66 2.5a1.454 1.454 0 0 0-.33.45 1.494 1.494 0 0 0 .71 1.99l3.31 1.56 1.51 3.19a1.46 1.46 0 0 0 .35.5 1.512 1.512 0 0 0 2.13-.05zm1.61-5.55a1.492 1.492 0 0 0-.92.49l-1.37 1.45-.85-1.8a1.507 1.507 0 0 0-.71-.7l-1.84-.8 1.45-1.36a1.517 1.517 0 0 0 .49-.93l.25-1.97 1.74.95a1.518 1.518 0 0 0 1 .16l1.96-.38-.38 1.96a1.514 1.514 0 0 0 .2 1.04l.95 1.64zm6.37 49.66l-1.73-3.14.65-3.57a1.816 1.816 0 0 0 0-.57 1.507 1.507 0 0 0-1.76-1.19l-3.56.67L58 78.54a2.048 2.048 0 0 0-.53-.17 1.516 1.516 0 0 0-1.69 1.3l-.24 2.23c-5.23-1.96-20.22-6.14-31.73 5.36a1.509 1.509 0 0 0 2.12 2.12c10.01-10.01 23.11-6.68 28.11-4.86l-1.34 1.32a1.46 1.46 0 0 0-.35.5 1.506 1.506 0 0 0 .79 1.97l3.26 1.54 1.56 3.31a1.414 1.414 0 0 0 .33.44 1.488 1.488 0 0 0 2.11-.06l2.51-2.66 3.57-.5a1.512 1.512 0 0 0 1.1-2.26zm-5.23-.65a1.492 1.492 0 0 0-.92.49l-1.37 1.45-.85-1.8a1.507 1.507 0 0 0-.71-.7l-1.8-.86 1.41-1.32.08-.08a1.353 1.353 0 0 0 .17-.34l-.09-.08.23-1.98 1.68.92a1.5 1.5 0 0 0 1.07.2l1.96-.38.01 1.49a1.455 1.455 0 0 0 .15 1l.95 1.74zm-9.87-24.61a1.5 1.5 0 0 0 1.84-1.06l3.35-12.49a1.503 1.503 0 0 0-2.9-.79l-3.35 12.5a1.509 1.509 0 0 0 1.06 1.84zm13.77-57.3a1.502 1.502 0 1 0 2.9.78l1.18-4.45a1.503 1.503 0 0 0-2.9-.79zm-14.8 22.75a1.5 1.5 0 0 0 0-2.11l-9.17-9.16a1.5 1.5 0 1 0-2.12 2.11l9.17 9.16a1.491 1.491 0 0 0 2.12 0zM29.5 26.78l-4.46-1.19a1.502 1.502 0 1 0-.78 2.9l4.45 1.19a1.503 1.503 0 0 0 .79-2.9zM14.08 40.46l2.2-.26a1.548 1.548 0 0 0 .57-.2 1.514 1.514 0 0 0 .53-2.07l-1.78-3.17.67-3.56a1.369 1.369 0 0 0 0-.57 1.5 1.5 0 0 0-1.76-1.19l-3.57.65-3.15-1.74a1.6 1.6 0 0 0-.57-.19 1.492 1.492 0 0 0-1.68 1.29l-.47 3.62-2.62 2.54a1.71 1.71 0 0 0-.32.44 1.5 1.5 0 0 0 .7 2l3.33 1.56 1.54 3.26a1.562 1.562 0 0 0 .35.5 1.5 1.5 0 0 0 2.12-.06l1.28-1.36c1.82 5.01 5.16 18.09-4.86 28.11a1.505 1.505 0 0 0 2.12 2.11c11.5-11.5 7.34-26.49 5.37-31.71zm-2.77-2.34l-.12-.11-.04.04a1.326 1.326 0 0 0-.34.16l-.05.05-1.33 1.41-.85-1.8a1.507 1.507 0 0 0-.71-.7l-1.8-.86 1.46-1.36a1.506 1.506 0 0 0 .48-.92l.25-1.98 1.75.96a1.5 1.5 0 0 0 1 .15l1.95-.37-.37 1.95a1.485 1.485 0 0 0-.25 1.46l.92 1.68zm40.06-26.35l3.39 12.53a1.507 1.507 0 0 0 2.9-.78L54.27 11a1.046 1.046 0 0 0-.04-.17 1.521 1.521 0 0 0-1.9-.96 1.5 1.5 0 0 0-.96 1.9zm-2.66-9.9l1.18 4.46a.749.749 0 0 0 .04.16 1.504 1.504 0 0 0 2.86-.93L51.61 1.1a1.5 1.5 0 0 0-2.9.77zm-15.8 10.02l3.28 3.28a1.479 1.479 0 0 0 2.11 0 1.5 1.5 0 0 0 0-2.11l-3.28-3.28a1.5 1.5 0 0 0-2.11 0 1.479 1.479 0 0 0 0 2.11z" fill-rule="evenodd"/></svg>