<svg xmlns="http://www.w3.org/2000/svg" width="96" height="96"><path fill="#ffd940" d="M48 0c26.51 0 48 21.49 48 48S74.51 96 48 96 0 74.51 0 48 21.49 0 48 0z"/><path d="M85.333 22.665v53.333h1.334c.737 0 1.333.595 1.333 1.333s-.596 1.333-1.333 1.333H49.333v2.667c0 .063-.028.117-.036.18 2.313.582 4.036 2.662 4.036 5.153A5.338 5.338 0 0 1 48 91.997a5.338 5.338 0 0 1-5.334-5.333c0-2.49 1.723-4.571 4.036-5.153-.008-.063-.035-.117-.035-.18v-2.667H9.333A1.331 1.331 0 0 1 8 77.331c0-.738.596-1.333 1.333-1.333h1.333V22.665H8V11.998h80v10.667zM48 83.999a2.669 2.669 0 0 0-2.667 2.665A2.67 2.67 0 0 0 48 89.33a2.67 2.67 0 0 0 2.666-2.667A2.669 2.669 0 0 0 48 83.999zm-37.334-64h74.667v-5.334H10.666zm72 2.666H13.333v53.333h69.333zm-28 48v-3.999a1.333 1.333 0 1 1 2.667 0v3.999a1.333 1.333 0 1 1-2.666 0zm8-9.334v9.334a1.333 1.333 0 1 1-2.666 0V61.33a1.333 1.333 0 1 1 2.667 0zM68 63.998v6.667a1.333 1.333 0 1 1-2.667 0v-6.667c0-.737.596-1.333 1.333-1.333.738 0 1.334.596 1.334 1.333zm5.333-9.333v16a1.333 1.333 0 1 1-2.666 0v-16a1.332 1.332 0 1 1 2.666 0zm5.334 5.333v10.667a1.333 1.333 0 1 1-2.667 0V59.998a1.332 1.332 0 1 1 2.667 0zm-58.667 4c0-.737.596-1.333 1.333-1.333h13.333a1.332 1.332 0 1 1 0 2.666H21.333A1.332 1.332 0 0 1 20 63.998zm22.666 5.334c0 .736-.595 1.333-1.333 1.333h-20a1.333 1.333 0 1 1 0-2.667h20c.738 0 1.333.596 1.333 1.334zm-24-27.334c0-8.032 6.214-14.63 14.086-15.27l.013-.016.527-.03c.113-.007.226.004.341.002.123-.003.243-.02.367-.02.175 0 .344.02.514.028.212.009.424.016.637.032a15.2 15.2 0 0 1 1.053.12c.148.021.296.041.442.067.4.07.791.158 1.18.258.106.026.211.052.316.08a14.7 14.7 0 0 1 1.186.393c.101.035.204.07.305.11.364.144.717.307 1.067.476.13.065.26.122.388.188.29.153.57.32.85.49.178.11.357.21.53.324.196.13.38.275.57.414.236.172.476.337.703.525.021.016.04.035.06.052.357.299.708.605 1.039.935.348.348.672.715.982 1.092l.003.003c.2.243.379.5.563.752.124.171.253.336.37.511.13.196.247.402.368.605.152.25.303.5.44.76.086.163.16.33.24.497.15.308.295.62.423.942.057.146.108.294.161.44.126.343.243.689.344 1.043.044.151.08.306.12.46.084.342.163.686.226 1.038.033.187.06.376.086.566.044.311.083.624.107.944.019.233.028.47.036.705.004.162.024.321.024.484 0 .121-.016.24-.016.36-.003.116.008.23.003.348l-.027.587-.025.021c-.343 4.004-2.232 7.564-5.065 10.098-.02.023-.027.05-.049.073-.034.034-.08.047-.117.077-2.693 2.34-6.199 3.769-10.037 3.769-8.455 0-15.334-6.879-15.334-15.333zm27.827 2h-9.941l6.662 6.663a12.61 12.61 0 0 0 3.28-6.663zM34.666 29.363v11.969h11.967c-.007-.132-.01-.267-.02-.398-.012-.138-.024-.278-.04-.415a13.387 13.387 0 0 0-.137-.897c-.017-.09-.032-.179-.051-.268a12.282 12.282 0 0 0-.276-1.072l-.019-.066a12.719 12.719 0 0 0-8.309-8.308c-.021-.008-.044-.013-.065-.02-.351-.107-.71-.197-1.072-.275-.09-.019-.179-.034-.268-.052a13.646 13.646 0 0 0-.898-.137 15.355 15.355 0 0 0-.414-.04c-.132-.01-.265-.01-.398-.021zM21.333 41.998c0 6.983 5.683 12.667 12.667 12.667 2.672 0 5.15-.837 7.194-2.254l-8.413-8.413h-.732l-.047-1.323-.001-.018-.001-.042v-13.11c-6.035.963-10.667 6.19-10.667 12.493zm37.333-6c0-.738.597-1.334 1.334-1.334h10.667a1.333 1.333 0 1 1 0 2.668H60a1.333 1.333 0 0 1-1.334-1.335zm19.614-.946c.24.251.387.6.387.945 0 .347-.147.694-.387.948-.253.24-.6.387-.947.387s-.694-.147-.947-.387a1.4 1.4 0 0 1-.386-.948c0-.345.145-.694.386-.945.494-.494 1.4-.494 1.894 0zM72 29.33c0-.737.596-1.333 1.333-1.333h4a1.332 1.332 0 1 1 0 2.666h-4A1.332 1.332 0 0 1 72 29.331zm-13.334 0c0-.737.597-1.333 1.334-1.333h2.667a1.332 1.332 0 1 1 0 2.666H60a1.332 1.332 0 0 1-1.334-1.333zm8.387.947a1.395 1.395 0 0 1-.387-.947c0-.346.146-.694.387-.946.493-.494 1.4-.494 1.894 0 .24.252.386.585.386.946a1.4 1.4 0 0 1-.386.947c-.254.24-.6.386-.947.386s-.695-.146-.947-.386z"/></svg>