<svg xmlns="http://www.w3.org/2000/svg" width="20" height="32"><path fill="#ffd940" d="M19.805 6.913c.333.7.236 1.512-.25 2.114l-2.399 2.968 1.096 5.11a1.987 1.987 0 0 1-.694 1.97 1.987 1.987 0 0 1-2.074.277L14 18.662v6.02a3.67 3.67 0 0 1 3.334 3.65 3.671 3.671 0 0 1-3.667 3.667H6.334a3.67 3.67 0 0 1-3.667-3.667 3.67 3.67 0 0 1 3.334-3.65v-5.988l-1.343.634a2 2 0 0 1-2.794-2.248l1.028-4.626-2.52-3.55a1.99 1.99 0 0 1-.147-2.076 1.993 1.993 0 0 1 1.777-1.082H6.23l1.948-4.57.035-.076A1.989 1.989 0 0 1 10.001 0a1.988 1.988 0 0 1 1.822 1.178l1.95 4.574 4.236.02a1.98 1.98 0 0 1 1.796 1.142zm-6.138 20.418H6.334a1.002 1.002 0 0 0 0 2.001h7.333a1.002 1.002 0 0 0 0-2.001zm-2.333-9.91l-1.33-.617-1.337.63v7.23h2.667zm5.274-8.991l-3.726-.017a1.333 1.333 0 0 1-1.22-.81L10.001 3.7 8.339 7.602c-.21.49-.693.81-1.227.81H3.294l2.116 2.981c.217.307.296.693.214 1.061l-.862 3.876 4.67-2.205a1.34 1.34 0 0 1 1.13-.002l4.801 2.233-.948-4.423a1.33 1.33 0 0 1 .266-1.116z"/></svg>