<svg xmlns="http://www.w3.org/2000/svg" width="38" height="38"><path fill="#ffd940" d="M37.007 22.6c.589.62.948 1.449.948 2.358 0 1.26-.694 2.366-1.732 2.981a3.39 3.39 0 0 1 .502 1.777c0 1.26-.694 2.368-1.732 2.982.319.52.502 1.128.502 1.777 0 1.926-1.621 3.494-3.614 3.494h-3.647c-.882 0-1.724.007-2.539.016-.736.006-1.452.013-2.152.013-4.098 0-7.667-.225-11.775-1.95a3.63 3.63 0 0 1-3.233 1.935H1.153C.516 37.983 0 37.484 0 36.867V17.834c0-.617.516-1.116 1.153-1.116h9.842c.637 0 1.154.499 1.154 1.116v.588c3.798-1.786 9.476-4.721 9.964-10.42.102-1.196 1.193-2.155 2.44-2.155h.037a4.933 4.933 0 0 1 3.395 1.406 4.606 4.606 0 0 1 1.402 3.306v.376c0 2.316-.539 3.991-1.554 5.768h6.552c1.993 0 3.615 1.57 3.615 3.496 0 .929-.378 1.774-.993 2.401zM9.842 34.49V18.947H2.306v16.806H4.92v-3.645c0-.616.517-1.115 1.154-1.115.637 0 1.153.5 1.153 1.115v3.645h1.308c.72 0 1.306-.568 1.306-1.265zm20.93-11.913c0-.616.516-1.115 1.153-1.115h2.46c.721 0 1.308-.567 1.308-1.263 0-.698-.587-1.265-1.308-1.265H23.313c-.637 0-1.153-.5-1.153-1.116 0-.615.516-1.115 1.153-1.115h1.835c1.308-1.982 1.933-3.45 1.933-5.768v-.374c0-1.347-1.134-2.462-2.527-2.483h-.002c-.062 0-.137.07-.14.107-.273 3.188-1.877 6.008-4.768 8.383-2.36 1.937-5.107 3.218-7.112 4.153-.126.06-.249.116-.368.172v12.882c4.59 2.06 8.368 2.026 13.51 1.979.82-.009 1.667-.015 2.56-.015h3.647c.72 0 1.307-.567 1.307-1.264 0-.698-.586-1.265-1.307-1.265-.637 0-1.153-.5-1.153-1.115 0-.616.516-1.115 1.153-1.115h1.23c.721 0 1.307-.567 1.307-1.264 0-.697-.586-1.264-1.307-1.264h-1.186c-.637 0-1.154-.5-1.154-1.117 0-.615.517-1.115 1.154-1.115h2.416c.721 0 1.308-.566 1.308-1.262 0-.7-.587-1.265-1.308-1.265h-2.416c-.637 0-1.154-.5-1.154-1.116zm5.982-13.221c0 .617-.516 1.117-1.153 1.117H33.14c-.637 0-1.153-.5-1.153-1.117 0-.614.516-1.116 1.153-1.116h2.46c.638 0 1.154.502 1.154 1.116zm-17.224 0c0 .617-.516 1.117-1.153 1.117h-2.46c-.638 0-1.154-.5-1.154-1.117 0-.614.516-1.116 1.153-1.116h2.46c.638 0 1.154.502 1.154 1.116zm3.115-5.215c-.183.1-.381.15-.577.15-.398 0-.786-.201-1-.558l-1.23-2.062a1.096 1.096 0 0 1 .423-1.524 1.177 1.177 0 0 1 1.575.409l1.23 2.06c.319.535.13 1.215-.421 1.525zm9.034-2.47l-1.23 2.062a1.165 1.165 0 0 1-1 .557c-.197 0-.395-.048-.576-.149a1.098 1.098 0 0 1-.423-1.525l1.231-2.06a1.177 1.177 0 0 1 1.575-.409c.552.308.741.99.423 1.524z"/></svg>