<svg xmlns="http://www.w3.org/2000/svg" width="38" height="32"><path fill="#ffd940" d="M38 18.386v.272c0 3.264-2.682 5.92-5.977 5.92h-.151c-3.296 0-5.977-2.656-5.977-5.92v-.272c0-.657.538-1.19 1.202-1.19h.241l3.488-9.334a4.726 4.726 0 0 1-2.326-1.43 4.763 4.763 0 0 0-3.556-1.59c-2.615 0-4.742 2.106-4.742 4.696v16.76a4.702 4.702 0 0 1 3.35 3.318h1.392c.664 0 1.203.534 1.203 1.19 0 .66-.539 1.192-1.203 1.192H13.055a1.197 1.197 0 0 1-1.202-1.191c0-.657.538-1.19 1.202-1.19h1.392a4.702 4.702 0 0 1 3.35-3.318V9.539c0-2.59-2.127-4.698-4.741-4.698a4.77 4.77 0 0 0-3.557 1.59 4.726 4.726 0 0 1-2.326 1.43l3.488 9.334h.241c.665 0 1.203.534 1.203 1.19v.273c0 3.264-2.681 5.92-5.977 5.92h-.151C2.681 24.578 0 21.922 0 18.658v-.272c0-.657.538-1.19 1.202-1.19h.242l3.465-9.273a4.924 4.924 0 0 1-2.455-1.312 1.185 1.185 0 0 1 0-1.686 1.213 1.213 0 0 1 1.7 0 2.509 2.509 0 0 0 1.831.72 2.366 2.366 0 0 0 1.712-.79 7.187 7.187 0 0 1 5.359-2.395c1.818 0 3.479.676 4.741 1.787V1.189C17.797.531 18.336 0 19 0s1.202.532 1.202 1.19v3.058a7.156 7.156 0 0 1 4.742-1.787c2.049 0 4.002.874 5.359 2.395a2.37 2.37 0 0 0 1.711.79 2.51 2.51 0 0 0 1.831-.719 1.21 1.21 0 0 1 1.7 0c.47.465.47 1.219 0 1.685a4.918 4.918 0 0 1-2.454 1.311l3.465 9.273h.241c.664 0 1.203.534 1.203 1.19zM9.578 19.578H2.527a3.574 3.574 0 0 0 3.45 2.618h.15c1.65 0 3.04-1.112 3.45-2.618zm-.627-2.383L6.053 9.437l-2.9 7.758zM19 28.525a2.31 2.31 0 0 0-1.964 1.091h3.928A2.31 2.31 0 0 0 19 28.526zm10.048-11.33h5.798l-2.899-7.758zm6.424 2.383h-7.05a3.574 3.574 0 0 0 3.45 2.618h.15a3.573 3.573 0 0 0 3.45-2.618z"/></svg>