<svg xmlns="http://www.w3.org/2000/svg" width="146" height="113"><path fill="#ffd940" d="M135.893 42.321c-17.33-30.044-55.588-40.526-85.284-23.366-25.59 14.787-36.595 45.349-28.06 72.742l1.851-7.063a5.124 5.124 0 0 1 6.325-3.655 5.23 5.23 0 0 1 3.155 2.443c.669 1.158.9 2.568.536 3.956l-5.509 21.032c-.016.062-.04.12-.058.183-.021.07-.043.144-.067.215-.057.16-.12.315-.19.466-.01.023-.016.046-.027.068l-.01.017a5.243 5.243 0 0 1-.199.366c-.018.03-.032.061-.05.09-.07.113-.145.217-.22.323-.027.035-.05.073-.076.108-.06.076-.124.148-.188.223-.048.057-.094.114-.144.168-.028.03-.06.057-.09.087a5.08 5.08 0 0 1-1.181.89c-.029.018-.055.038-.084.056-1.957 1.131-4.353.815-5.98-.607l-17.453-8.62C.312 101.17-.77 98.046.47 95.466a5.128 5.128 0 0 1 6.913-2.37l5.659 2.796C2.407 63.654 15.187 27.358 45.389 9.905c34.627-20.01 79.24-7.787 99.449 27.248 1.441 2.498.607 5.682-1.862 7.108-2.47 1.428-5.641.56-7.083-1.94z"/></svg>