<svg width="40" height="40" xmlns="http://www.w3.org/2000/svg"><defs><clipPath id="a"><path d="M20 0c11.046 0 20 8.954 20 20s-8.954 20-20 20S0 31.046 0 20 8.954 0 20 0z" fill="#fff"/></clipPath></defs><path d="M20 0c11.046 0 20 8.954 20 20s-8.954 20-20 20S0 31.046 0 20 8.954 0 20 0z" fill="#f7f7f7"/><path d="M20 0c11.046 0 20 8.954 20 20s-8.954 20-20 20S0 31.046 0 20 8.954 0 20 0z" fill="none" stroke-linejoin="round" stroke-linecap="round" stroke="#ffd940" stroke-miterlimit="50" stroke-width="8" clip-path="url(&quot;#a&quot;)"/><path d="M21.197 17.993h-7.205c-1.1 0-1.992.896-1.992 2.002 0 1.104.892 1.998 1.992 1.998h7.205l-2.575 2.585a2.007 2.007 0 0 0 0 2.83c.778.78 2.04.78 2.817 0l5.976-5.999c.047-.047.09-.096.132-.147l.028-.038c.03-.039.06-.076.088-.12.008-.01.015-.023.023-.035.027-.043.054-.087.078-.131l.013-.029c.025-.049.05-.097.07-.148l.007-.02c.022-.054.042-.109.059-.165l.005-.021c.016-.055.031-.11.042-.168.004-.017.005-.034.008-.05a1.878 1.878 0 0 0 0-.687c-.003-.016-.004-.034-.008-.05a1.962 1.962 0 0 0-.042-.17l-.005-.02a1.913 1.913 0 0 0-.06-.164l-.006-.02a1.98 1.98 0 0 0-.162-.309l-.022-.035c-.027-.04-.058-.08-.088-.12l-.028-.037a2.283 2.283 0 0 0-.131-.145l-5.977-6a1.981 1.981 0 0 0-1.408-.585c-.51 0-1.02.194-1.41.584a2.008 2.008 0 0 0 0 2.83z" fill="#ffd940"/></svg>