<svg width="40" height="40" xmlns="http://www.w3.org/2000/svg"><defs><clipPath id="a"><path d="M20 0c11.046 0 20 8.954 20 20s-8.954 20-20 20S0 31.046 0 20 8.954 0 20 0z" fill="#fff"/></clipPath></defs><path d="M20 0c11.046 0 20 8.954 20 20s-8.954 20-20 20S0 31.046 0 20 8.954 0 20 0z" fill="#f7f7f7"/><path d="M20 0c11.046 0 20 8.954 20 20s-8.954 20-20 20S0 31.046 0 20 8.954 0 20 0z" fill="none" stroke-linejoin="round" stroke-linecap="round" stroke="#ffd940" stroke-miterlimit="50" stroke-width="8" clip-path="url(&quot;#a&quot;)"/><path d="M18.802 21.998h7.206c1.1 0 1.991-.895 1.991-2s-.891-2-1.991-2h-7.206l2.575-2.585a2.006 2.006 0 0 0 0-2.829 1.988 1.988 0 0 0-2.817 0l-5.976 5.999c-.047.047-.09.095-.132.146l-.028.038c-.03.04-.06.078-.088.12l-.022.036a2.155 2.155 0 0 0-.079.132l-.013.027a2.021 2.021 0 0 0-.07.149l-.007.02a2.11 2.11 0 0 0-.059.165l-.005.02a1.985 1.985 0 0 0-.042.169c-.004.017-.005.033-.008.051-.008.047-.017.095-.021.143a1.955 1.955 0 0 0 0 .399c.004.049.013.096.021.144.003.016.004.033.008.05a1.906 1.906 0 0 0 .106.354l.007.02c.021.05.046.1.07.15l.013.026c.025.046.052.09.08.132l.021.035c.027.043.058.08.088.12l.028.038c.042.05.085.098.131.145l5.977 6a1.98 1.98 0 0 0 1.408.586c.51 0 1.02-.195 1.41-.587a2.005 2.005 0 0 0 0-2.827z" fill="#ffd940"/></svg>