<svg xmlns="http://www.w3.org/2000/svg" width="96" height="96"><path fill="#ffd940" d="M48 0c26.51 0 48 21.49 48 48S74.51 96 48 96 0 74.51 0 48 21.49 0 48 0z"/><path d="M87.999 9.566a1.565 1.565 0 0 1-1.563 1.563 1.566 1.566 0 0 1-1.562-1.563c0-.41.167-.813.458-1.104a1.57 1.57 0 0 1 1.104-.458c.411 0 .814.167 1.105.458.292.29.458.695.458 1.104zM72.682 37.533v5.461c0 1.388-.756 2.6-1.875 3.249v25.659a5.32 5.32 0 0 1-5.314 5.315H30.5a5.32 5.32 0 0 1-5.314-5.315v-25.66a3.752 3.752 0 0 1-1.874-3.248v-5.461a3.757 3.757 0 0 1 3.752-3.754h5.79a6.759 6.759 0 0 1-1.097-3.7 6.809 6.809 0 0 1 6.801-6.8 6.804 6.804 0 0 1 5.852 3.339 5.735 5.735 0 0 1 3.586-1.258c1.356 0 2.602.472 3.587 1.258a6.805 6.805 0 0 1 5.851-3.34 6.81 6.81 0 0 1 6.802 6.802 6.758 6.758 0 0 1-1.098 3.7h5.791a3.757 3.757 0 0 1 3.753 3.753zm-18.925-3.774h3.677a3.683 3.683 0 0 0 3.678-3.678 3.682 3.682 0 0 0-3.678-3.679 3.682 3.682 0 0 0-3.677 3.678zm1.605 3.145h-4.29l5.73 10.19.273-1.021a1.562 1.562 0 0 1 1.915-1.107l1.116.3zM45.36 31.121a2.639 2.639 0 0 0 2.636 2.636 2.639 2.639 0 0 0 2.636-2.636 2.64 2.64 0 0 0-2.636-2.636 2.64 2.64 0 0 0-2.636 2.636zm-4.682 5.783l-3.702 6.49 1.106-.295a1.572 1.572 0 0 1 1.187.155c.358.208.62.55.728.95l.283 1.06 4.782-8.36zm-5.797-6.824c0 2.028 1.65 3.68 3.677 3.68h3.677v-3.68a3.682 3.682 0 0 0-3.677-3.678 3.682 3.682 0 0 0-3.677 3.678zm-7.817 13.542h6.185l3.831-6.718H27.065a.63.63 0 0 0-.629.629v5.461c0 .348.282.628.629.628zm23.743 30.469V46.84h-5.624v17.407a1.562 1.562 0 1 1-3.125 0v-15.8l-.95 1.663a1.563 1.563 0 0 1-2.866-.373l-.86-3.216-3.214.863a1.56 1.56 0 0 1-1.642-.554c-.02-.027-.036-.055-.054-.083H28.31v25.154c0 1.207.982 2.189 2.19 2.189zm-6.04-30.375h6.55l-3.248-5.774zm22.914 3.032H64.54l.127.225a1.564 1.564 0 0 1-1.763 2.28l-3.215-.862-.86 3.215a1.565 1.565 0 0 1-1.51 1.158c-.559 0-1.082-.3-1.36-.797l-2.025-3.6v25.724h11.56a2.191 2.191 0 0 0 2.188-2.189zm1.875-9.215a.628.628 0 0 0-.628-.628h-9.974l3.811 6.718h6.163a.628.628 0 0 0 .628-.629zM45.185 69.95c0 .41-.168.812-.458 1.105a1.58 1.58 0 0 1-1.105.459c-.41 0-.814-.17-1.105-.46a1.571 1.571 0 0 1-.457-1.104c0-.412.167-.815.457-1.106.291-.29.694-.457 1.105-.457.411 0 .814.167 1.105.457.29.292.457.694.458 1.106zM83.44 14.774L69.1 29.118a1.558 1.558 0 0 1-1.106.456c-.4 0-.8-.152-1.104-.456-.61-.61-.61-1.6 0-2.211l14.34-14.342a1.562 1.562 0 1 1 2.21 2.21zm-59.805 9.173a1.555 1.555 0 0 1-1.105.458c-.4 0-.8-.152-1.105-.458l-8.827-8.827a1.562 1.562 0 1 1 2.21-2.21l8.828 8.827c.61.612.61 1.6 0 2.21zm-.71 51.49l-12.1 12.103a1.556 1.556 0 0 1-2.21 0 1.562 1.562 0 0 1 0-2.21l12.102-12.102a1.564 1.564 0 0 1 2.21 2.21zm60.701 8.195a1.558 1.558 0 0 1-1.104.457c-.4 0-.8-.152-1.105-.457l-7.8-7.802a1.562 1.562 0 1 1 2.21-2.21l7.8 7.802c.61.61.61 1.6 0 2.21zM19.95 47.998c0 .862-.699 1.563-1.562 1.563H9.561a1.564 1.564 0 0 1 0-3.125h8.827c.863 0 1.562.7 1.562 1.562zm68.04 0c0 .862-.699 1.563-1.562 1.563h-8.912a1.563 1.563 0 0 1 0-3.125h8.912c.863 0 1.562.7 1.562 1.562zM49.56 9.559v11.98a1.563 1.563 0 1 1-3.125 0V9.559a1.564 1.564 0 0 1 3.125 0zm0 70.903v5.973a1.563 1.563 0 1 1-3.125 0v-5.973a1.563 1.563 0 0 1 3.125 0zm38.434-15.608c0 .863-.7 1.563-1.563 1.563H85.36a1.563 1.563 0 0 1 0-3.125h1.071c.863 0 1.563.699 1.563 1.562zm-7.581 0c0 .863-.7 1.563-1.562 1.563h-1.072a1.563 1.563 0 0 1 0-3.125h1.072c.863 0 1.562.699 1.562 1.562zm3.255 3.255v1.073a1.563 1.563 0 0 1-3.125 0v-1.073a1.563 1.563 0 1 1 3.125 0zm0-7.581v1.07a1.563 1.563 0 1 1-3.125 0v-1.07a1.563 1.563 0 0 1 3.125 0zm-63.724-26.12c0 .861-.7 1.561-1.562 1.561H17.31a1.563 1.563 0 0 1 0-3.124h1.072c.863 0 1.562.7 1.562 1.562zm-7.58 0c0 .861-.7 1.561-1.563 1.561H9.73a1.563 1.563 0 1 1 0-3.124h1.07c.863 0 1.563.7 1.563 1.562zm3.254 3.254v1.071a1.563 1.563 0 0 1-3.124 0v-1.07a1.562 1.562 0 1 1 3.124 0zm0-7.581v1.071a1.562 1.562 0 1 1-3.124 0v-1.071a1.563 1.563 0 0 1 3.124 0zm55.45-14.321a4.693 4.693 0 0 1-4.687 4.687 4.693 4.693 0 0 1-4.687-4.687 4.693 4.693 0 0 1 4.687-4.689 4.693 4.693 0 0 1 4.687 4.689zm-3.125 0c0-.861-.7-1.563-1.562-1.563a1.563 1.563 0 1 0 1.562 1.563zM19.408 64.854a4.693 4.693 0 0 1-4.687 4.688 4.693 4.693 0 0 1-4.688-4.688 4.694 4.694 0 0 1 4.688-4.688 4.693 4.693 0 0 1 4.687 4.688zm-3.125 0c0-.86-.701-1.562-1.562-1.562-.862 0-1.563.702-1.563 1.562 0 .862.7 1.563 1.563 1.563.86 0 1.562-.701 1.562-1.563zm51.66 17.171a1.566 1.566 0 0 1-1.563 1.562c-.41 0-.813-.167-1.105-.46a1.573 1.573 0 0 1-.457-1.102c0-.412.166-.814.457-1.105a1.58 1.58 0 0 1 1.106-.458c.41 0 .814.167 1.104.458.29.291.458.693.458 1.105zm-33.695 0a1.567 1.567 0 0 1-1.563 1.562c-.41 0-.813-.167-1.104-.46a1.574 1.574 0 0 1-.457-1.102c0-.412.167-.814.457-1.105.29-.29.694-.458 1.105-.458.41 0 .813.167 1.104.458.29.291.458.693.458 1.105zm1.076-66.22a1.566 1.566 0 0 1-1.562 1.562 1.565 1.565 0 0 1-1.562-1.562c0-.41.167-.815.458-1.106.29-.289.693-.458 1.104-.458.41 0 .814.169 1.105.458.29.292.457.695.457 1.106zm48.219 17.663c0 .41-.167.812-.458 1.104-.29.291-.693.46-1.104.46-.411 0-.814-.169-1.105-.46a1.576 1.576 0 0 1-.458-1.104 1.57 1.57 0 0 1 1.563-1.563 1.563 1.563 0 0 1 1.562 1.563z"/></svg>