<svg xmlns="http://www.w3.org/2000/svg" width="40" height="32"><path fill="#ffd940" d="M40 14.341v9.706c0 1.884-1.274 3.47-2.993 3.918v2.837c0 .66-.527 1.195-1.177 1.195h-4.472c-.65 0-1.177-.535-1.177-1.195v-2.708H9.634v2.708c0 .66-.527 1.195-1.177 1.195H3.984c-.65 0-1.177-.535-1.177-1.195v-2.889A4.047 4.047 0 0 1 0 24.047V14.34a4.234 4.234 0 0 1 2.992-4.062V5.892c0-3.25 2.603-5.894 5.804-5.894h22.408c3.2 0 5.803 2.644 5.803 5.894v4.387A4.233 4.233 0 0 1 40 14.341zM31.204 2.39H21.177v12.054h9.027a3.71 3.71 0 0 1 1.457.294v-.396a4.233 4.233 0 0 1 2.992-4.062V5.892c0-1.931-1.547-3.503-3.449-3.503zM8.338 19.625h23.323v-1.313c0-.815-.654-1.48-1.457-1.48H9.796c-.804 0-1.458.665-1.458 1.48zM5.346 5.892v4.387a4.234 4.234 0 0 1 2.992 4.062v.396c.45-.19.942-.294 1.458-.294h9.027V2.389H8.796c-1.902 0-3.45 1.572-3.45 3.503zM7.28 28.094H5.161v1.513H7.28zm27.373 0h-2.118v1.513h2.118zm2.992-13.753c0-1.016-.814-1.843-1.815-1.843-1 0-1.815.827-1.815 1.843v6.48c0 .66-.527 1.195-1.177 1.195H7.161c-.65 0-1.177-.536-1.177-1.196v-6.479c0-1.016-.814-1.843-1.815-1.843-1 0-1.815.827-1.815 1.843v9.706c0 .913.732 1.655 1.63 1.655h32.032c.898 0 1.63-.742 1.63-1.655z"/></svg>