<svg xmlns="http://www.w3.org/2000/svg" width="36" height="32"><path fill="#ffd940" d="M36 6.227v14.911c0 3.448-2.829 6.253-6.306 6.253h-15.42c-3.945 0-7.726 1.44-10.647 4.054a2.188 2.188 0 0 1-2.322.372C.511 31.472 0 30.71 0 29.874V6.302C0 2.827 2.864-.001 6.385-.001H29.69c3.479 0 6.31 2.794 6.31 6.228zm-2.11 14.911V6.228c0-2.285-1.884-4.143-4.2-4.143H6.384c-2.358 0-4.276 1.892-4.276 4.217v23.565a.09.09 0 0 0 .045.04c.016.007.045.002.055-.007a18.058 18.058 0 0 1 12.065-4.597l15.42.001c2.314 0 4.196-1.869 4.196-4.166zm-6.17-7.423c0 5.29-4.36 9.593-9.72 9.593s-9.72-4.303-9.72-9.593S12.64 4.122 18 4.122s9.72 4.303 9.72 9.593zm-2.11 0c0-4.138-3.414-7.506-7.61-7.506-4.197 0-7.61 3.368-7.61 7.506 0 4.14 3.413 7.506 7.61 7.506 4.196 0 7.61-3.367 7.61-7.506zM14.19 12.14v-1.268c0-.577.473-1.043 1.055-1.043.583 0 1.055.466 1.055 1.043v1.268a1.05 1.05 0 0 1-1.055 1.044 1.048 1.048 0 0 1-1.054-1.044zm7.719-1.268v1.268a1.05 1.05 0 0 1-1.055 1.044 1.049 1.049 0 0 1-1.055-1.044v-1.268c0-.577.473-1.043 1.055-1.043s1.055.466 1.055 1.043zm0 4.377c0 1.754-1.446 3.18-3.222 3.18h-1.275c-1.776 0-3.221-1.426-3.221-3.18a1.05 1.05 0 0 1 1.054-1.044A1.05 1.05 0 0 1 16.3 15.25c0 .602.499 1.094 1.112 1.094h1.275c.613 0 1.112-.492 1.112-1.094a1.05 1.05 0 0 1 1.055-1.044 1.05 1.05 0 0 1 1.055 1.044z"/></svg>